<?xml version="1.0" encoding="UTF-8"?>
<svg id="Layer_1" xmlns="http://www.w3.org/2000/svg" viewBox="0 0 500 500">
  <defs>
    <style>
      .cls-1 {
        fill: #fff;
      }

      .cls-2 {
        fill: #e74c3c;
      }

      .cls-3 {
        isolation: isolate;
      }
    </style>
  </defs>
  <rect class="cls-2" width="500" height="500"/>
  <path class="cls-1" d="M275.3,307.36c-28.07-.9-48.12-26.17-67.19-43.78,18.25-18.73,40.2-42.07,67.19-43.72v-29.82c-37.53,2.2-62.78,28.8-87.11,53.12-23.9-23.9-51.29-53.29-88.15-53.29-43.82,0-75.7,34.36-75.7,73.7,0,42.83,29.88,73.7,71.71,73.7s66.73-27.89,92.13-53.29c23.68,23.68,50.78,52.71,87.11,53.26v-29.9ZM98.05,307.41c-24.4,0-42.33-18.43-42.33-43.82,0-23.41,18.92-43.82,43.82-43.82,28.88,0,49.3,25.9,68.72,43.82-18.92,19.42-41.83,43.82-70.22,43.82Z"/>
  <g class="cls-3">
    <g class="cls-3">
      <path class="cls-1" d="M308.59,221.55c-5.24,0-9.52-1.55-12.86-4.66-3.34-3.11-5-6.92-5-11.43s1.67-8.44,5-11.38,7.62-4.42,12.86-4.42,9.6,1.47,12.91,4.42c3.3,2.94,4.96,6.74,4.96,11.38s-1.65,8.57-4.96,11.58c-3.3,3.01-7.61,4.51-12.91,4.51ZM323.9,337.95h-31.01v-100.5h31.01v100.5Z"/>
    </g>
    <g class="cls-3">
      <path class="cls-1" d="M346,337.95v-146.34h42.25c53.95,0,80.93,23.78,80.93,71.33,0,22.59-7.48,40.74-22.45,54.44-14.97,13.71-35.04,20.56-60.21,20.56h-40.51ZM370.18,212.22v105.21h19.39c17.08,0,30.36-4.7,39.85-14.08,9.49-9.39,14.24-22.65,14.24-39.8,0-34.22-17.72-51.33-53.17-51.33h-20.31Z"/>
    </g>
  </g>
</svg>